<svg id="visual" viewBox="0 0 900 600" width="900" height="600" xmlns="http://www.w3.org/2000/svg" xmlns:xlink="http://www.w3.org/1999/xlink" version="1.1"><rect x="0" y="0" width="900" height="600" fill="#000000"></rect><path d="M0 446L21.5 437.8C43 429.7 86 413.3 128.8 407.2C171.7 401 214.3 405 257.2 408.2C300 411.3 343 413.7 385.8 413.3C428.7 413 471.3 410 514.2 399.5C557 389 600 371 642.8 376.5C685.7 382 728.3 411 771.2 419C814 427 857 414 878.5 407.5L900 401L900 601L878.5 601C857 601 814 601 771.2 601C728.3 601 685.7 601 642.8 601C600 601 557 601 514.2 601C471.3 601 428.7 601 385.8 601C343 601 300 601 257.2 601C214.3 601 171.7 601 128.8 601C86 601 43 601 21.5 601L0 601Z" fill="#fa7268"></path><path d="M0 437L21.5 443.3C43 449.7 86 462.3 128.8 456.5C171.7 450.7 214.3 426.3 257.2 421.2C300 416 343 430 385.8 428.8C428.7 427.7 471.3 411.3 514.2 407.2C557 403 600 411 642.8 422.8C685.7 434.7 728.3 450.3 771.2 459.3C814 468.3 857 470.7 878.5 471.8L900 473L900 601L878.5 601C857 601 814 601 771.2 601C728.3 601 685.7 601 642.8 601C600 601 557 601 514.2 601C471.3 601 428.7 601 385.8 601C343 601 300 601 257.2 601C214.3 601 171.7 601 128.8 601C86 601 43 601 21.5 601L0 601Z" fill="#ff4d77"></path><path d="M0 490L21.5 490.8C43 491.7 86 493.3 128.8 496.5C171.7 499.7 214.3 504.3 257.2 503.3C300 502.3 343 495.7 385.8 485.2C428.7 474.7 471.3 460.3 514.2 456C557 451.7 600 457.3 642.8 462.2C685.7 467 728.3 471 771.2 472.5C814 474 857 473 878.5 472.5L900 472L900 601L878.5 601C857 601 814 601 771.2 601C728.3 601 685.7 601 642.8 601C600 601 557 601 514.2 601C471.3 601 428.7 601 385.8 601C343 601 300 601 257.2 601C214.3 601 171.7 601 128.8 601C86 601 43 601 21.5 601L0 601Z" fill="#fb1c92"></path><path d="M0 515L21.5 511.7C43 508.3 86 501.7 128.8 505.2C171.7 508.7 214.3 522.3 257.2 523.2C300 524 343 512 385.8 506.3C428.7 500.7 471.3 501.3 514.2 499C557 496.7 600 491.3 642.8 495C685.7 498.7 728.3 511.3 771.2 518.8C814 526.3 857 528.7 878.5 529.8L900 531L900 601L878.5 601C857 601 814 601 771.2 601C728.3 601 685.7 601 642.8 601C600 601 557 601 514.2 601C471.3 601 428.7 601 385.8 601C343 601 300 601 257.2 601C214.3 601 171.7 601 128.8 601C86 601 43 601 21.5 601L0 601Z" fill="#e600b7"></path><path d="M0 558L21.5 554C43 550 86 542 128.8 537.8C171.7 533.7 214.3 533.3 257.2 539.7C300 546 343 559 385.8 558.7C428.7 558.3 471.3 544.7 514.2 538.3C557 532 600 533 642.8 539.5C685.7 546 728.3 558 771.2 562.7C814 567.3 857 564.7 878.5 563.3L900 562L900 601L878.5 601C857 601 814 601 771.2 601C728.3 601 685.7 601 642.8 601C600 601 557 601 514.2 601C471.3 601 428.7 601 385.8 601C343 601 300 601 257.2 601C214.3 601 171.7 601 128.8 601C86 601 43 601 21.5 601L0 601Z" fill="#b70ce1"></path></svg>