<svg id="visual" viewBox="0 0 900 600" width="900" height="600" xmlns="http://www.w3.org/2000/svg" xmlns:xlink="http://www.w3.org/1999/xlink" version="1.1"><rect x="0" y="0" width="900" height="600" fill="#000000"></rect><path d="M0 451L21.5 445.3C43 439.7 86 428.3 128.8 426.7C171.7 425 214.3 433 257.2 450.3C300 467.7 343 494.3 385.8 490.8C428.7 487.3 471.3 453.7 514.2 442.7C557 431.7 600 443.3 642.8 456.3C685.7 469.3 728.3 483.7 771.2 479.7C814 475.7 857 453.3 878.5 442.2L900 431L900 601L878.5 601C857 601 814 601 771.2 601C728.3 601 685.7 601 642.8 601C600 601 557 601 514.2 601C471.3 601 428.7 601 385.8 601C343 601 300 601 257.2 601C214.3 601 171.7 601 128.8 601C86 601 43 601 21.5 601L0 601Z" fill="#000000" stroke-linecap="round" stroke-linejoin="miter"></path></svg>