<svg id="visual" viewBox="0 0 900 600" width="900" height="600" xmlns="http://www.w3.org/2000/svg" xmlns:xlink="http://www.w3.org/1999/xlink" version="1.1"><rect x="0" y="0" width="900" height="600" fill="#001220"></rect><path d="M0 440L21.5 426.8C43 413.7 86 387.3 128.8 385.3C171.7 383.3 214.3 405.7 257.2 417C300 428.3 343 428.7 385.8 416C428.7 403.3 471.3 377.7 514.2 367.3C557 357 600 362 642.8 372.7C685.7 383.3 728.3 399.7 771.2 401.7C814 403.7 857 391.3 878.5 385.2L900 379L900 601L878.5 601C857 601 814 601 771.2 601C728.3 601 685.7 601 642.8 601C600 601 557 601 514.2 601C471.3 601 428.7 601 385.8 601C343 601 300 601 257.2 601C214.3 601 171.7 601 128.8 601C86 601 43 601 21.5 601L0 601Z" fill="#fa6969"></path><path d="M0 476L21.5 465.8C43 455.7 86 435.3 128.8 434C171.7 432.7 214.3 450.3 257.2 451.2C300 452 343 436 385.8 426.2C428.7 416.3 471.3 412.7 514.2 415.2C557 417.7 600 426.3 642.8 436.8C685.7 447.3 728.3 459.7 771.2 465.2C814 470.7 857 469.3 878.5 468.7L900 468L900 601L878.5 601C857 601 814 601 771.2 601C728.3 601 685.7 601 642.8 601C600 601 557 601 514.2 601C471.3 601 428.7 601 385.8 601C343 601 300 601 257.2 601C214.3 601 171.7 601 128.8 601C86 601 43 601 21.5 601L0 601Z" fill="#fa4d78"></path><path d="M0 450L21.5 456C43 462 86 474 128.8 478.7C171.7 483.3 214.3 480.7 257.2 473.8C300 467 343 456 385.8 449.3C428.7 442.7 471.3 440.3 514.2 450.7C557 461 600 484 642.8 495.8C685.7 507.7 728.3 508.3 771.2 500.8C814 493.3 857 477.7 878.5 469.8L900 462L900 601L878.5 601C857 601 814 601 771.2 601C728.3 601 685.7 601 642.8 601C600 601 557 601 514.2 601C471.3 601 428.7 601 385.8 601C343 601 300 601 257.2 601C214.3 601 171.7 601 128.8 601C86 601 43 601 21.5 601L0 601Z" fill="#f3318e"></path><path d="M0 514L21.5 514C43 514 86 514 128.8 517.2C171.7 520.3 214.3 526.7 257.2 524.3C300 522 343 511 385.8 506C428.7 501 471.3 502 514.2 501.8C557 501.7 600 500.3 642.8 501.5C685.7 502.7 728.3 506.3 771.2 507C814 507.7 857 505.3 878.5 504.2L900 503L900 601L878.5 601C857 601 814 601 771.2 601C728.3 601 685.7 601 642.8 601C600 601 557 601 514.2 601C471.3 601 428.7 601 385.8 601C343 601 300 601 257.2 601C214.3 601 171.7 601 128.8 601C86 601 43 601 21.5 601L0 601Z" fill="#e01ca9"></path><path d="M0 563L21.5 558C43 553 86 543 128.8 537C171.7 531 214.3 529 257.2 529.3C300 529.7 343 532.3 385.8 532C428.7 531.7 471.3 528.3 514.2 526.7C557 525 600 525 642.8 531.5C685.7 538 728.3 551 771.2 556C814 561 857 558 878.5 556.5L900 555L900 601L878.5 601C857 601 814 601 771.2 601C728.3 601 685.7 601 642.8 601C600 601 557 601 514.2 601C471.3 601 428.7 601 385.8 601C343 601 300 601 257.2 601C214.3 601 171.7 601 128.8 601C86 601 43 601 21.5 601L0 601Z" fill="#bf24c7"></path></svg>