<svg id="visual" viewBox="0 0 900 600" width="900" height="600" xmlns="http://www.w3.org/2000/svg" xmlns:xlink="http://www.w3.org/1999/xlink" version="1.1"><rect x="0" y="0" width="900" height="600" fill="#001220"></rect><path d="M0 414L21.5 418.2C43 422.3 86 430.7 128.8 435.5C171.7 440.3 214.3 441.7 257.2 429.7C300 417.7 343 392.3 385.8 384C428.7 375.7 471.3 384.3 514.2 390.5C557 396.7 600 400.3 642.8 407.5C685.7 414.7 728.3 425.3 771.2 431.2C814 437 857 438 878.5 438.5L900 439L900 601L878.5 601C857 601 814 601 771.2 601C728.3 601 685.7 601 642.8 601C600 601 557 601 514.2 601C471.3 601 428.7 601 385.8 601C343 601 300 601 257.2 601C214.3 601 171.7 601 128.8 601C86 601 43 601 21.5 601L0 601Z" fill="#001220"></path><path d="M0 479L21.5 471.5C43 464 86 449 128.8 435.2C171.7 421.3 214.3 408.7 257.2 415.7C300 422.7 343 449.3 385.8 454.7C428.7 460 471.3 444 514.2 443.3C557 442.7 600 457.3 642.8 452.3C685.7 447.3 728.3 422.7 771.2 416.3C814 410 857 422 878.5 428L900 434L900 601L878.5 601C857 601 814 601 771.2 601C728.3 601 685.7 601 642.8 601C600 601 557 601 514.2 601C471.3 601 428.7 601 385.8 601C343 601 300 601 257.2 601C214.3 601 171.7 601 128.8 601C86 601 43 601 21.5 601L0 601Z" fill="#001220"></path><path d="M0 446L21.5 451.2C43 456.3 86 466.7 128.8 471.3C171.7 476 214.3 475 257.2 474.3C300 473.7 343 473.3 385.8 471.2C428.7 469 471.3 465 514.2 470.3C557 475.7 600 490.3 642.8 490.5C685.7 490.7 728.3 476.3 771.2 468.5C814 460.7 857 459.3 878.5 458.7L900 458L900 601L878.5 601C857 601 814 601 771.2 601C728.3 601 685.7 601 642.8 601C600 601 557 601 514.2 601C471.3 601 428.7 601 385.8 601C343 601 300 601 257.2 601C214.3 601 171.7 601 128.8 601C86 601 43 601 21.5 601L0 601Z" fill="#001220"></path><path d="M0 500L21.5 505.7C43 511.3 86 522.7 128.8 529.7C171.7 536.7 214.3 539.3 257.2 539.2C300 539 343 536 385.8 529C428.7 522 471.3 511 514.2 510.5C557 510 600 520 642.8 520.5C685.7 521 728.3 512 771.2 504.5C814 497 857 491 878.5 488L900 485L900 601L878.5 601C857 601 814 601 771.2 601C728.3 601 685.7 601 642.8 601C600 601 557 601 514.2 601C471.3 601 428.7 601 385.8 601C343 601 300 601 257.2 601C214.3 601 171.7 601 128.8 601C86 601 43 601 21.5 601L0 601Z" fill="#001220"></path><path d="M0 526L21.5 533.3C43 540.7 86 555.3 128.8 557C171.7 558.7 214.3 547.3 257.2 547.5C300 547.7 343 559.3 385.8 561C428.7 562.7 471.3 554.3 514.2 553.2C557 552 600 558 642.8 559.5C685.7 561 728.3 558 771.2 558.8C814 559.7 857 564.3 878.5 566.7L900 569L900 601L878.5 601C857 601 814 601 771.2 601C728.3 601 685.7 601 642.8 601C600 601 557 601 514.2 601C471.3 601 428.7 601 385.8 601C343 601 300 601 257.2 601C214.3 601 171.7 601 128.8 601C86 601 43 601 21.5 601L0 601Z" fill="#001220"></path></svg>